<?xml version="1.0" encoding="utf-8"?>
<!-- Generator: Adobe Illustrator 18.1.1, SVG Export Plug-In . SVG Version: 6.00 Build 0)  -->
<svg version="1.1" id="Capa_1" xmlns="http://www.w3.org/2000/svg" xmlns:xlink="http://www.w3.org/1999/xlink" x="0px" y="0px"
	 viewBox="0 0 425.2 382.5" enable-background="new 0 0 425.2 382.5" xml:space="preserve">
<ellipse fill="#202021" cx="212.6" cy="163.5" rx="148.2" ry="148.5"/>
<g>
	<polygon fill="#9CD6E7" points="168.6,266.9 146.7,116.5 202.7,253.4 	"/>
	<polygon fill="#06ACC1" points="168.7,266.9 210.2,253.2 304.9,55.5 270.2,77.2 	"/>
</g>
<g>
	<path d="M164.3,335.8l6.2,17.1l6.2-17.1h1.2l-7.4,20.4l-7.4-20.4H164.3z"/>
	<path d="M198.5,339.5c0.2,0.2,0.3,0.5,0.3,0.8c0,0.3-0.1,0.6-0.3,0.8c-0.2,0.2-0.5,0.3-0.8,0.3s-0.6-0.1-0.8-0.3
		c-0.2-0.2-0.3-0.5-0.3-0.8c0-0.3,0.1-0.6,0.3-0.8c0.2-0.2,0.5-0.3,0.8-0.3S198.3,339.3,198.5,339.5z M198.3,343.5v12.2h-1.1v-12.2
		H198.3z"/>
	<path d="M220.9,343.5v-5.2h1.1v5.2h2.5v1.1h-2.5v11.1h-1.1v-11.1h-2.5v-1.1H220.9z"/>
	<path d="M246.8,353.5c1.1,1,2.3,1.4,3.8,1.4c1.6,0,2.9-0.6,4-1.7c0.1-0.1,0.3-0.3,0.4-0.4l1.2,0.4c-0.2,0.3-0.5,0.6-0.7,0.9
		c-1.3,1.3-3,2-4.8,2c-1.9,0-3.5-0.7-4.8-2c-1.3-1.3-2-3-2-4.8c0-1.9,0.7-3.5,2-4.8c1.3-1.3,2.9-2,4.8-2c1.6,0,3,0.5,4.2,1.5
		c0.2,0.2,0.4,0.3,0.6,0.5c0.1,0.1,0.1,0.1,0.2,0.2l-0.8,0.8L246.8,353.5z M253.9,344.7c-1-0.7-2.1-1.1-3.4-1.1
		c-1.6,0-2.9,0.5-4,1.7s-1.7,2.4-1.7,4c0,1.3,0.4,2.4,1.1,3.4L253.9,344.7z M252.7,338.5l-3.1,2.3h-1l2-2.3H252.7z"/>
</g>
</svg>
